<mxfile host="Electron" agent="Mozilla/5.0 (Windows NT 10.0; Win64; x64) AppleWebKit/537.36 (KHTML, like Gecko) draw.io/28.0.4 Chrome/138.0.7204.97 Electron/37.2.1 Safari/537.36" version="28.0.4">
  <diagram name="Page-1" id="R-LBl-LtqQWlu7W-DdGd">
    <mxGraphModel dx="2076" dy="1893" grid="1" gridSize="10" guides="1" tooltips="1" connect="1" arrows="1" fold="1" page="1" pageScale="1" pageWidth="850" pageHeight="1100" math="0" shadow="0">
      <root>
        <mxCell id="0" />
        <mxCell id="1" parent="0" />
        <mxCell id="JmvELf3OL0NUBLqZp8Vq-2" value="&lt;font style=&quot;font-size: 16px;&quot;&gt;employee&lt;/font&gt;" style="rounded=1;whiteSpace=wrap;html=1;fillColor=#6d8764;fontColor=#ffffff;strokeColor=#3A5431;" parent="1" vertex="1">
          <mxGeometry x="690" y="159" width="120" height="60" as="geometry" />
        </mxCell>
        <mxCell id="JmvELf3OL0NUBLqZp8Vq-3" value="&lt;font style=&quot;font-size: 16px;&quot;&gt;aircraft&lt;/font&gt;" style="rounded=1;whiteSpace=wrap;html=1;fillColor=#6d8764;fontColor=#ffffff;strokeColor=#3A5431;" parent="1" vertex="1">
          <mxGeometry x="140" y="440" width="120" height="60" as="geometry" />
        </mxCell>
        <mxCell id="JmvELf3OL0NUBLqZp8Vq-4" value="&lt;font style=&quot;font-size: 16px;&quot;&gt;route&lt;/font&gt;" style="rounded=1;whiteSpace=wrap;html=1;fillColor=#6d8764;fontColor=#ffffff;strokeColor=#3A5431;" parent="1" vertex="1">
          <mxGeometry x="682.5" y="435" width="120" height="60" as="geometry" />
        </mxCell>
        <mxCell id="JmvELf3OL0NUBLqZp8Vq-13" value="Name_employee" style="ellipse;whiteSpace=wrap;html=1;" parent="1" vertex="1">
          <mxGeometry x="610" y="220" width="100" height="60" as="geometry" />
        </mxCell>
        <mxCell id="JmvELf3OL0NUBLqZp8Vq-14" value="gender" style="ellipse;whiteSpace=wrap;html=1;" parent="1" vertex="1">
          <mxGeometry x="710" y="239" width="100" height="60" as="geometry" />
        </mxCell>
        <mxCell id="JmvELf3OL0NUBLqZp8Vq-15" value="id_employee" style="ellipse;whiteSpace=wrap;html=1;fontStyle=4" parent="1" vertex="1">
          <mxGeometry x="560" y="160" width="100" height="60" as="geometry" />
        </mxCell>
        <mxCell id="JmvELf3OL0NUBLqZp8Vq-17" value="address" style="ellipse;shape=doubleEllipse;margin=3;whiteSpace=wrap;html=1;align=center;" parent="1" vertex="1">
          <mxGeometry x="810" y="220" width="100" height="60" as="geometry" />
        </mxCell>
        <mxCell id="JmvELf3OL0NUBLqZp8Vq-19" value="birthday&amp;nbsp;" style="ellipse;whiteSpace=wrap;html=1;fontStyle=0" parent="1" vertex="1">
          <mxGeometry x="630" y="40" width="100" height="60" as="geometry" />
        </mxCell>
        <mxCell id="JmvELf3OL0NUBLqZp8Vq-20" value="year" style="ellipse;whiteSpace=wrap;html=1;fontStyle=0" parent="1" vertex="1">
          <mxGeometry x="740" y="20" width="100" height="60" as="geometry" />
        </mxCell>
        <mxCell id="JmvELf3OL0NUBLqZp8Vq-21" value="month" style="ellipse;whiteSpace=wrap;html=1;fontStyle=0" parent="1" vertex="1">
          <mxGeometry x="630" y="-29" width="100" height="60" as="geometry" />
        </mxCell>
        <mxCell id="JmvELf3OL0NUBLqZp8Vq-22" value="day" style="ellipse;whiteSpace=wrap;html=1;fontStyle=0" parent="1" vertex="1">
          <mxGeometry x="519" y="20" width="100" height="60" as="geometry" />
        </mxCell>
        <mxCell id="JmvELf3OL0NUBLqZp8Vq-25" value="" style="endArrow=none;html=1;rounded=0;exitX=1;exitY=0.5;exitDx=0;exitDy=0;fillColor=#e3c800;strokeColor=#B09500;entryX=0;entryY=0.5;entryDx=0;entryDy=0;" parent="1" source="JmvELf3OL0NUBLqZp8Vq-15" target="JmvELf3OL0NUBLqZp8Vq-2" edge="1">
          <mxGeometry relative="1" as="geometry">
            <mxPoint x="635" y="197.62" as="sourcePoint" />
            <mxPoint x="690" y="197.62" as="targetPoint" />
          </mxGeometry>
        </mxCell>
        <mxCell id="JmvELf3OL0NUBLqZp8Vq-26" value="" style="endArrow=none;html=1;rounded=0;entryX=0.739;entryY=0.055;entryDx=0;entryDy=0;fillColor=#e3c800;strokeColor=#B09500;exitX=0.001;exitY=0.848;exitDx=0;exitDy=0;exitPerimeter=0;entryPerimeter=0;" parent="1" source="JmvELf3OL0NUBLqZp8Vq-2" target="JmvELf3OL0NUBLqZp8Vq-13" edge="1">
          <mxGeometry relative="1" as="geometry">
            <mxPoint x="699.62" y="219" as="sourcePoint" />
            <mxPoint x="700" y="239" as="targetPoint" />
          </mxGeometry>
        </mxCell>
        <mxCell id="JmvELf3OL0NUBLqZp8Vq-27" value="" style="endArrow=none;html=1;rounded=0;entryX=0.5;entryY=0;entryDx=0;entryDy=0;fillColor=#e3c800;strokeColor=#B09500;exitX=0.569;exitY=1.02;exitDx=0;exitDy=0;exitPerimeter=0;" parent="1" source="JmvELf3OL0NUBLqZp8Vq-2" target="JmvELf3OL0NUBLqZp8Vq-14" edge="1">
          <mxGeometry relative="1" as="geometry">
            <mxPoint x="780" y="219" as="sourcePoint" />
            <mxPoint x="780" y="249" as="targetPoint" />
          </mxGeometry>
        </mxCell>
        <mxCell id="JmvELf3OL0NUBLqZp8Vq-28" value="" style="endArrow=none;html=1;rounded=0;fillColor=#e3c800;strokeColor=#B09500;exitX=0.9;exitY=0.986;exitDx=0;exitDy=0;exitPerimeter=0;" parent="1" source="JmvELf3OL0NUBLqZp8Vq-2" target="JmvELf3OL0NUBLqZp8Vq-17" edge="1">
          <mxGeometry relative="1" as="geometry">
            <mxPoint x="810" y="188.62" as="sourcePoint" />
            <mxPoint x="820" y="189" as="targetPoint" />
          </mxGeometry>
        </mxCell>
        <mxCell id="JmvELf3OL0NUBLqZp8Vq-29" value="" style="endArrow=none;html=1;rounded=0;exitX=0.5;exitY=1;exitDx=0;exitDy=0;fillColor=#e3c800;strokeColor=#B09500;entryX=0.119;entryY=0.002;entryDx=0;entryDy=0;entryPerimeter=0;" parent="1" source="JmvELf3OL0NUBLqZp8Vq-19" target="JmvELf3OL0NUBLqZp8Vq-2" edge="1">
          <mxGeometry relative="1" as="geometry">
            <mxPoint x="750" y="149" as="sourcePoint" />
            <mxPoint x="750" y="159" as="targetPoint" />
          </mxGeometry>
        </mxCell>
        <mxCell id="JmvELf3OL0NUBLqZp8Vq-30" value="" style="endArrow=none;html=1;rounded=0;entryX=0.045;entryY=0.705;entryDx=0;entryDy=0;entryPerimeter=0;fillColor=#e3c800;strokeColor=#B09500;" parent="1" target="JmvELf3OL0NUBLqZp8Vq-20" edge="1">
          <mxGeometry relative="1" as="geometry">
            <mxPoint x="730" y="69.62" as="sourcePoint" />
            <mxPoint x="770" y="69.62" as="targetPoint" />
          </mxGeometry>
        </mxCell>
        <mxCell id="JmvELf3OL0NUBLqZp8Vq-31" value="" style="endArrow=none;html=1;rounded=0;exitX=0.963;exitY=0.689;exitDx=0;exitDy=0;exitPerimeter=0;fillColor=#e3c800;strokeColor=#B09500;" parent="1" source="JmvELf3OL0NUBLqZp8Vq-22" edge="1">
          <mxGeometry relative="1" as="geometry">
            <mxPoint x="600" y="69.62" as="sourcePoint" />
            <mxPoint x="630" y="69.62" as="targetPoint" />
          </mxGeometry>
        </mxCell>
        <mxCell id="JmvELf3OL0NUBLqZp8Vq-32" value="" style="endArrow=none;html=1;rounded=0;exitX=0.5;exitY=1;exitDx=0;exitDy=0;fillColor=#e3c800;strokeColor=#B09500;" parent="1" source="JmvELf3OL0NUBLqZp8Vq-21" edge="1">
          <mxGeometry relative="1" as="geometry">
            <mxPoint x="680" y="30" as="sourcePoint" />
            <mxPoint x="679.23" y="40" as="targetPoint" />
          </mxGeometry>
        </mxCell>
        <mxCell id="JmvELf3OL0NUBLqZp8Vq-36" value="capacity" style="ellipse;whiteSpace=wrap;html=1;" parent="1" vertex="1">
          <mxGeometry x="30" y="510" width="100" height="60" as="geometry" />
        </mxCell>
        <mxCell id="JmvELf3OL0NUBLqZp8Vq-37" value="Number_aircraft" style="ellipse;whiteSpace=wrap;html=1;fontStyle=4" parent="1" vertex="1">
          <mxGeometry x="135" y="530" width="100" height="60" as="geometry" />
        </mxCell>
        <mxCell id="JmvELf3OL0NUBLqZp8Vq-38" value="model" style="ellipse;whiteSpace=wrap;html=1;" parent="1" vertex="1">
          <mxGeometry x="240" y="510" width="100" height="60" as="geometry" />
        </mxCell>
        <mxCell id="JmvELf3OL0NUBLqZp8Vq-39" value="" style="endArrow=none;html=1;rounded=0;entryX=0.871;entryY=1.057;entryDx=0;entryDy=0;entryPerimeter=0;fillColor=#e3c800;strokeColor=#B09500;" parent="1" source="JmvELf3OL0NUBLqZp8Vq-38" target="JmvELf3OL0NUBLqZp8Vq-3" edge="1">
          <mxGeometry relative="1" as="geometry">
            <mxPoint x="110" y="500" as="sourcePoint" />
            <mxPoint x="140" y="480" as="targetPoint" />
          </mxGeometry>
        </mxCell>
        <mxCell id="JmvELf3OL0NUBLqZp8Vq-40" value="" style="endArrow=none;html=1;rounded=0;fillColor=#e3c800;strokeColor=#B09500;exitX=0.039;exitY=0.986;exitDx=0;exitDy=0;exitPerimeter=0;" parent="1" source="JmvELf3OL0NUBLqZp8Vq-3" target="JmvELf3OL0NUBLqZp8Vq-36" edge="1">
          <mxGeometry relative="1" as="geometry">
            <mxPoint x="220" y="430" as="sourcePoint" />
            <mxPoint x="260" y="420" as="targetPoint" />
            <Array as="points" />
          </mxGeometry>
        </mxCell>
        <mxCell id="JmvELf3OL0NUBLqZp8Vq-41" value="" style="endArrow=none;html=1;rounded=0;exitX=0.65;exitY=0;exitDx=0;exitDy=0;entryX=0.5;entryY=1;entryDx=0;entryDy=0;fillColor=#e3c800;strokeColor=#B09500;exitPerimeter=0;" parent="1" source="JmvELf3OL0NUBLqZp8Vq-37" target="JmvELf3OL0NUBLqZp8Vq-3" edge="1">
          <mxGeometry relative="1" as="geometry">
            <mxPoint x="150" y="420" as="sourcePoint" />
            <mxPoint x="170" y="430" as="targetPoint" />
          </mxGeometry>
        </mxCell>
        <mxCell id="JmvELf3OL0NUBLqZp8Vq-42" value="Number_route" style="ellipse;whiteSpace=wrap;html=1;fontStyle=4" parent="1" vertex="1">
          <mxGeometry x="667.5" y="355" width="100" height="60" as="geometry" />
        </mxCell>
        <mxCell id="JmvELf3OL0NUBLqZp8Vq-43" value="classification" style="ellipse;whiteSpace=wrap;html=1;" parent="1" vertex="1">
          <mxGeometry x="667.5" y="525" width="100" height="60" as="geometry" />
        </mxCell>
        <mxCell id="JmvELf3OL0NUBLqZp8Vq-45" value="origin" style="ellipse;whiteSpace=wrap;html=1;" parent="1" vertex="1">
          <mxGeometry x="777.5" y="365.5" width="100" height="60" as="geometry" />
        </mxCell>
        <mxCell id="JmvELf3OL0NUBLqZp8Vq-46" value="destination" style="ellipse;whiteSpace=wrap;html=1;" parent="1" vertex="1">
          <mxGeometry x="812.5" y="435" width="100" height="60" as="geometry" />
        </mxCell>
        <mxCell id="JmvELf3OL0NUBLqZp8Vq-47" value="distance" style="ellipse;whiteSpace=wrap;html=1;" parent="1" vertex="1">
          <mxGeometry x="777.5" y="515" width="100" height="60" as="geometry" />
        </mxCell>
        <mxCell id="JmvELf3OL0NUBLqZp8Vq-48" value="" style="endArrow=none;html=1;rounded=0;exitX=0.338;exitY=1.017;exitDx=0;exitDy=0;fillColor=#e3c800;strokeColor=#B09500;entryX=0.699;entryY=0.033;entryDx=0;entryDy=0;entryPerimeter=0;exitPerimeter=0;" parent="1" source="JmvELf3OL0NUBLqZp8Vq-45" target="JmvELf3OL0NUBLqZp8Vq-4" edge="1">
          <mxGeometry relative="1" as="geometry">
            <mxPoint x="672.5" y="464" as="sourcePoint" />
            <mxPoint x="682.5" y="464.44000000000005" as="targetPoint" />
          </mxGeometry>
        </mxCell>
        <mxCell id="JmvELf3OL0NUBLqZp8Vq-49" value="" style="endArrow=none;html=1;rounded=0;exitX=0.805;exitY=0.915;exitDx=0;exitDy=0;fillColor=#e3c800;strokeColor=#B09500;entryX=0.515;entryY=-0.034;entryDx=0;entryDy=0;exitPerimeter=0;entryPerimeter=0;" parent="1" source="JmvELf3OL0NUBLqZp8Vq-42" target="JmvELf3OL0NUBLqZp8Vq-4" edge="1">
          <mxGeometry relative="1" as="geometry">
            <mxPoint x="662.5" y="505" as="sourcePoint" />
            <mxPoint x="692.5" y="495" as="targetPoint" />
          </mxGeometry>
        </mxCell>
        <mxCell id="JmvELf3OL0NUBLqZp8Vq-50" value="" style="endArrow=none;html=1;rounded=0;exitX=0.5;exitY=0;exitDx=0;exitDy=0;fillColor=#e3c800;strokeColor=#B09500;" parent="1" source="JmvELf3OL0NUBLqZp8Vq-43" edge="1">
          <mxGeometry relative="1" as="geometry">
            <mxPoint x="742.5" y="515" as="sourcePoint" />
            <mxPoint x="741.94" y="495" as="targetPoint" />
          </mxGeometry>
        </mxCell>
        <mxCell id="JmvELf3OL0NUBLqZp8Vq-51" value="" style="endArrow=none;html=1;rounded=0;fillColor=#e3c800;strokeColor=#B09500;" parent="1" target="JmvELf3OL0NUBLqZp8Vq-47" edge="1">
          <mxGeometry relative="1" as="geometry">
            <mxPoint x="772.5" y="495" as="sourcePoint" />
            <mxPoint x="812.5" y="515" as="targetPoint" />
          </mxGeometry>
        </mxCell>
        <mxCell id="JmvELf3OL0NUBLqZp8Vq-52" value="" style="endArrow=none;html=1;rounded=0;entryX=0;entryY=0.5;entryDx=0;entryDy=0;fillColor=#e3c800;strokeColor=#B09500;" parent="1" target="JmvELf3OL0NUBLqZp8Vq-46" edge="1">
          <mxGeometry relative="1" as="geometry">
            <mxPoint x="802.5" y="465" as="sourcePoint" />
            <mxPoint x="812.5" y="465" as="targetPoint" />
          </mxGeometry>
        </mxCell>
        <mxCell id="JmvELf3OL0NUBLqZp8Vq-54" value="&lt;span style=&quot;font-size: 16px;&quot;&gt;transaction&lt;/span&gt;" style="rounded=1;whiteSpace=wrap;html=1;fillColor=#6d8764;fontColor=#ffffff;strokeColor=#3A5431;" parent="1" vertex="1">
          <mxGeometry x="-270" y="160" width="120" height="60" as="geometry" />
        </mxCell>
        <mxCell id="JmvELf3OL0NUBLqZp8Vq-55" value="&lt;font&gt;Number_&lt;/font&gt;&lt;div&gt;&lt;font&gt;transaction&lt;/font&gt;&lt;/div&gt;" style="ellipse;whiteSpace=wrap;html=1;fontStyle=4" parent="1" vertex="1">
          <mxGeometry x="-370" y="230" width="100" height="60" as="geometry" />
        </mxCell>
        <mxCell id="JmvELf3OL0NUBLqZp8Vq-56" value="date" style="ellipse;whiteSpace=wrap;html=1;" parent="1" vertex="1">
          <mxGeometry x="-260" y="250" width="100" height="60" as="geometry" />
        </mxCell>
        <mxCell id="JmvELf3OL0NUBLqZp8Vq-57" value="type&amp;nbsp;" style="ellipse;whiteSpace=wrap;html=1;" parent="1" vertex="1">
          <mxGeometry x="-390" y="160" width="100" height="60" as="geometry" />
        </mxCell>
        <mxCell id="JmvELf3OL0NUBLqZp8Vq-58" value="amount of&lt;div&gt;money&amp;nbsp;&lt;/div&gt;" style="ellipse;whiteSpace=wrap;html=1;" parent="1" vertex="1">
          <mxGeometry x="-140" y="160" width="100" height="60" as="geometry" />
        </mxCell>
        <mxCell id="JmvELf3OL0NUBLqZp8Vq-59" value="description&amp;nbsp;" style="ellipse;whiteSpace=wrap;html=1;" parent="1" vertex="1">
          <mxGeometry x="-150" y="230" width="100" height="60" as="geometry" />
        </mxCell>
        <mxCell id="JmvELf3OL0NUBLqZp8Vq-60" value="" style="endArrow=none;html=1;rounded=0;exitX=1;exitY=0.5;exitDx=0;exitDy=0;fillColor=#e3c800;strokeColor=#B09500;" parent="1" source="JmvELf3OL0NUBLqZp8Vq-57" edge="1">
          <mxGeometry relative="1" as="geometry">
            <mxPoint x="-280" y="189" as="sourcePoint" />
            <mxPoint x="-270" y="189.44000000000005" as="targetPoint" />
          </mxGeometry>
        </mxCell>
        <mxCell id="JmvELf3OL0NUBLqZp8Vq-61" value="" style="endArrow=none;html=1;rounded=0;exitX=1;exitY=0;exitDx=0;exitDy=0;fillColor=#e3c800;strokeColor=#B09500;" parent="1" source="JmvELf3OL0NUBLqZp8Vq-55" edge="1">
          <mxGeometry relative="1" as="geometry">
            <mxPoint x="-290" y="230" as="sourcePoint" />
            <mxPoint x="-260" y="220" as="targetPoint" />
          </mxGeometry>
        </mxCell>
        <mxCell id="JmvELf3OL0NUBLqZp8Vq-62" value="" style="endArrow=none;html=1;rounded=0;exitX=0.5;exitY=0;exitDx=0;exitDy=0;fillColor=#e3c800;strokeColor=#B09500;" parent="1" source="JmvELf3OL0NUBLqZp8Vq-56" edge="1">
          <mxGeometry relative="1" as="geometry">
            <mxPoint x="-210" y="240" as="sourcePoint" />
            <mxPoint x="-210.55999999999995" y="220" as="targetPoint" />
          </mxGeometry>
        </mxCell>
        <mxCell id="JmvELf3OL0NUBLqZp8Vq-63" value="" style="endArrow=none;html=1;rounded=0;fillColor=#e3c800;strokeColor=#B09500;" parent="1" target="JmvELf3OL0NUBLqZp8Vq-59" edge="1">
          <mxGeometry relative="1" as="geometry">
            <mxPoint x="-180" y="220" as="sourcePoint" />
            <mxPoint x="-140" y="240" as="targetPoint" />
          </mxGeometry>
        </mxCell>
        <mxCell id="JmvELf3OL0NUBLqZp8Vq-64" value="" style="endArrow=none;html=1;rounded=0;entryX=0;entryY=0.5;entryDx=0;entryDy=0;fillColor=#e3c800;strokeColor=#B09500;" parent="1" target="JmvELf3OL0NUBLqZp8Vq-58" edge="1">
          <mxGeometry relative="1" as="geometry">
            <mxPoint x="-150" y="190" as="sourcePoint" />
            <mxPoint x="-140" y="190" as="targetPoint" />
          </mxGeometry>
        </mxCell>
        <mxCell id="JmvELf3OL0NUBLqZp8Vq-65" value="&lt;font style=&quot;font-size: 16px;&quot;&gt;crew&lt;/font&gt;" style="rounded=1;whiteSpace=wrap;html=1;fillColor=#6d8764;fontColor=#ffffff;strokeColor=#3A5431;" parent="1" vertex="1">
          <mxGeometry x="-270" y="440" width="120" height="60" as="geometry" />
        </mxCell>
        <mxCell id="JmvELf3OL0NUBLqZp8Vq-67" value="id_crew" style="ellipse;whiteSpace=wrap;html=1;fontStyle=4" parent="1" vertex="1">
          <mxGeometry x="-390" y="435" width="100" height="60" as="geometry" />
        </mxCell>
        <mxCell id="JmvELf3OL0NUBLqZp8Vq-71" value="" style="endArrow=none;html=1;rounded=0;exitX=1;exitY=0.5;exitDx=0;exitDy=0;entryX=-0.008;entryY=0.435;entryDx=0;entryDy=0;fillColor=#e3c800;strokeColor=#B09500;entryPerimeter=0;" parent="1" source="JmvELf3OL0NUBLqZp8Vq-67" target="JmvELf3OL0NUBLqZp8Vq-65" edge="1">
          <mxGeometry relative="1" as="geometry">
            <mxPoint x="-260" y="430" as="sourcePoint" />
            <mxPoint x="-240" y="440" as="targetPoint" />
          </mxGeometry>
        </mxCell>
        <mxCell id="JmvELf3OL0NUBLqZp8Vq-72" value="&lt;span style=&quot;font-size: 16px;&quot;&gt;airline&lt;/span&gt;" style="rounded=1;whiteSpace=wrap;html=1;fillColor=#6d8764;fontColor=#ffffff;strokeColor=#3A5431;" parent="1" vertex="1">
          <mxGeometry x="135" y="160" width="120" height="60" as="geometry" />
        </mxCell>
        <mxCell id="JmvELf3OL0NUBLqZp8Vq-73" value="Number_airline" style="ellipse;whiteSpace=wrap;html=1;fontStyle=4" parent="1" vertex="1">
          <mxGeometry x="45" y="90" width="100" height="60" as="geometry" />
        </mxCell>
        <mxCell id="JmvELf3OL0NUBLqZp8Vq-74" value="Name_airline" style="ellipse;whiteSpace=wrap;html=1;" parent="1" vertex="1">
          <mxGeometry x="160" y="80" width="100" height="60" as="geometry" />
        </mxCell>
        <mxCell id="JmvELf3OL0NUBLqZp8Vq-76" value="telephone" style="ellipse;whiteSpace=wrap;html=1;" parent="1" vertex="1">
          <mxGeometry x="255" y="210" width="100" height="60" as="geometry" />
        </mxCell>
        <mxCell id="JmvELf3OL0NUBLqZp8Vq-77" value="contact_person" style="ellipse;whiteSpace=wrap;html=1;" parent="1" vertex="1">
          <mxGeometry x="275" y="90" width="100" height="60" as="geometry" />
        </mxCell>
        <mxCell id="JmvELf3OL0NUBLqZp8Vq-78" value="" style="endArrow=none;html=1;rounded=0;exitX=0.935;exitY=0.229;exitDx=0;exitDy=0;fillColor=#e3c800;strokeColor=#B09500;entryX=0.081;entryY=1.011;entryDx=0;entryDy=0;entryPerimeter=0;exitPerimeter=0;" parent="1" source="JmvELf3OL0NUBLqZp8Vq-84" target="JmvELf3OL0NUBLqZp8Vq-72" edge="1">
          <mxGeometry relative="1" as="geometry">
            <mxPoint x="115.00000000000523" y="190" as="sourcePoint" />
            <mxPoint x="135" y="189.44000000000005" as="targetPoint" />
          </mxGeometry>
        </mxCell>
        <mxCell id="JmvELf3OL0NUBLqZp8Vq-79" value="" style="endArrow=none;html=1;rounded=0;exitX=1;exitY=1;exitDx=0;exitDy=0;entryX=0.08;entryY=-0.021;entryDx=0;entryDy=0;entryPerimeter=0;fillColor=#e3c800;strokeColor=#B09500;" parent="1" source="JmvELf3OL0NUBLqZp8Vq-73" target="JmvELf3OL0NUBLqZp8Vq-72" edge="1">
          <mxGeometry relative="1" as="geometry">
            <mxPoint x="115" y="230" as="sourcePoint" />
            <mxPoint x="145" y="220" as="targetPoint" />
          </mxGeometry>
        </mxCell>
        <mxCell id="JmvELf3OL0NUBLqZp8Vq-80" value="" style="endArrow=none;html=1;rounded=0;entryX=0.5;entryY=0;entryDx=0;entryDy=0;exitX=0.397;exitY=0.994;exitDx=0;exitDy=0;exitPerimeter=0;fillColor=#e3c800;strokeColor=#B09500;" parent="1" source="JmvELf3OL0NUBLqZp8Vq-74" target="JmvELf3OL0NUBLqZp8Vq-72" edge="1">
          <mxGeometry relative="1" as="geometry">
            <mxPoint x="198" y="150" as="sourcePoint" />
            <mxPoint x="194.44000000000005" y="220" as="targetPoint" />
          </mxGeometry>
        </mxCell>
        <mxCell id="JmvELf3OL0NUBLqZp8Vq-81" value="" style="endArrow=none;html=1;rounded=0;exitX=0.963;exitY=0.013;exitDx=0;exitDy=0;exitPerimeter=0;fillColor=#e3c800;strokeColor=#B09500;" parent="1" source="JmvELf3OL0NUBLqZp8Vq-72" target="JmvELf3OL0NUBLqZp8Vq-77" edge="1">
          <mxGeometry relative="1" as="geometry">
            <mxPoint x="225" y="220" as="sourcePoint" />
            <mxPoint x="265" y="240" as="targetPoint" />
          </mxGeometry>
        </mxCell>
        <mxCell id="JmvELf3OL0NUBLqZp8Vq-82" value="" style="endArrow=none;html=1;rounded=0;fillColor=#e3c800;strokeColor=#B09500;exitX=0.84;exitY=0.982;exitDx=0;exitDy=0;exitPerimeter=0;entryX=0.002;entryY=0.346;entryDx=0;entryDy=0;entryPerimeter=0;" parent="1" source="JmvELf3OL0NUBLqZp8Vq-72" target="JmvELf3OL0NUBLqZp8Vq-76" edge="1">
          <mxGeometry relative="1" as="geometry">
            <mxPoint x="230" y="230" as="sourcePoint" />
            <mxPoint x="250" y="230" as="targetPoint" />
          </mxGeometry>
        </mxCell>
        <mxCell id="JmvELf3OL0NUBLqZp8Vq-84" value="address" style="ellipse;shape=doubleEllipse;margin=3;whiteSpace=wrap;html=1;align=center;" parent="1" vertex="1">
          <mxGeometry x="35" y="210" width="100" height="60" as="geometry" />
        </mxCell>
        <mxCell id="JmvELf3OL0NUBLqZp8Vq-86" value="Works" style="shape=rhombus;perimeter=rhombusPerimeter;whiteSpace=wrap;html=1;align=center;fillColor=#76608a;fontColor=#ffffff;strokeColor=#432D57;" parent="1" vertex="1">
          <mxGeometry x="425" y="100" width="120" height="60" as="geometry" />
        </mxCell>
        <mxCell id="JmvELf3OL0NUBLqZp8Vq-90" value="" style="endArrow=none;html=1;rounded=0;entryX=0;entryY=0.5;entryDx=0;entryDy=0;exitX=0.994;exitY=0.621;exitDx=0;exitDy=0;exitPerimeter=0;fillColor=#e51400;strokeColor=#B20000;" parent="1" source="JmvELf3OL0NUBLqZp8Vq-72" target="JmvELf3OL0NUBLqZp8Vq-86" edge="1">
          <mxGeometry relative="1" as="geometry">
            <mxPoint x="259.0000000000001" y="202.93999999999994" as="sourcePoint" />
            <mxPoint x="424.84000000000003" y="119" as="targetPoint" />
          </mxGeometry>
        </mxCell>
        <mxCell id="JmvELf3OL0NUBLqZp8Vq-92" value="Position with&lt;div&gt;the company&lt;/div&gt;" style="ellipse;whiteSpace=wrap;html=1;" parent="1" vertex="1">
          <mxGeometry x="830" y="150" width="100" height="60" as="geometry" />
        </mxCell>
        <mxCell id="JmvELf3OL0NUBLqZp8Vq-93" value="" style="endArrow=none;html=1;rounded=0;fillColor=#e3c800;strokeColor=#B09500;entryX=0.004;entryY=0.604;entryDx=0;entryDy=0;entryPerimeter=0;" parent="1" target="JmvELf3OL0NUBLqZp8Vq-92" edge="1">
          <mxGeometry relative="1" as="geometry">
            <mxPoint x="810" y="189.68" as="sourcePoint" />
            <mxPoint x="820" y="190" as="targetPoint" />
          </mxGeometry>
        </mxCell>
        <mxCell id="JmvELf3OL0NUBLqZp8Vq-94" value="qualifications" style="ellipse;whiteSpace=wrap;html=1;" parent="1" vertex="1">
          <mxGeometry x="770" y="90" width="100" height="60" as="geometry" />
        </mxCell>
        <mxCell id="JmvELf3OL0NUBLqZp8Vq-95" value="" style="endArrow=none;html=1;rounded=0;fillColor=#e3c800;strokeColor=#B09500;exitX=0.5;exitY=0;exitDx=0;exitDy=0;entryX=0.083;entryY=0.773;entryDx=0;entryDy=0;entryPerimeter=0;" parent="1" source="JmvELf3OL0NUBLqZp8Vq-2" target="JmvELf3OL0NUBLqZp8Vq-94" edge="1">
          <mxGeometry relative="1" as="geometry">
            <mxPoint x="725" y="140" as="sourcePoint" />
            <mxPoint x="775" y="140" as="targetPoint" />
          </mxGeometry>
        </mxCell>
        <mxCell id="JmvELf3OL0NUBLqZp8Vq-96" value="" style="shape=link;html=1;rounded=0;fillColor=#e51400;strokeColor=#B20000;exitX=0.986;exitY=0.505;exitDx=0;exitDy=0;exitPerimeter=0;entryX=-0.004;entryY=0.108;entryDx=0;entryDy=0;entryPerimeter=0;" parent="1" source="JmvELf3OL0NUBLqZp8Vq-86" target="JmvELf3OL0NUBLqZp8Vq-2" edge="1">
          <mxGeometry relative="1" as="geometry">
            <mxPoint x="545" y="129.57" as="sourcePoint" />
            <mxPoint x="705" y="129.57" as="targetPoint" />
          </mxGeometry>
        </mxCell>
        <mxCell id="JmvELf3OL0NUBLqZp8Vq-98" value="1" style="text;html=1;align=center;verticalAlign=middle;whiteSpace=wrap;rounded=0;fillColor=#647687;fontColor=#ffffff;strokeColor=#314354;" parent="1" vertex="1">
          <mxGeometry x="365" y="159" width="35" height="21" as="geometry" />
        </mxCell>
        <mxCell id="JmvELf3OL0NUBLqZp8Vq-99" value="M" style="text;html=1;align=center;verticalAlign=middle;whiteSpace=wrap;rounded=0;fillColor=#647687;fontColor=#ffffff;strokeColor=#314354;" parent="1" vertex="1">
          <mxGeometry x="570" y="109" width="35" height="21" as="geometry" />
        </mxCell>
        <mxCell id="JmvELf3OL0NUBLqZp8Vq-101" value="Owns" style="shape=rhombus;perimeter=rhombusPerimeter;whiteSpace=wrap;html=1;align=center;fillColor=#76608a;fontColor=#ffffff;strokeColor=#432D57;" parent="1" vertex="1">
          <mxGeometry x="140" y="282" width="120" height="60" as="geometry" />
        </mxCell>
        <mxCell id="JmvELf3OL0NUBLqZp8Vq-103" value="" style="shape=link;html=1;rounded=0;fillColor=#e51400;strokeColor=#B20000;exitX=0.5;exitY=1;exitDx=0;exitDy=0;entryX=0.5;entryY=0;entryDx=0;entryDy=0;" parent="1" source="JmvELf3OL0NUBLqZp8Vq-101" target="JmvELf3OL0NUBLqZp8Vq-3" edge="1">
          <mxGeometry relative="1" as="geometry">
            <mxPoint x="199.81999999999996" y="359" as="sourcePoint" />
            <mxPoint x="200" y="390" as="targetPoint" />
          </mxGeometry>
        </mxCell>
        <mxCell id="JmvELf3OL0NUBLqZp8Vq-105" value="1" style="text;html=1;align=center;verticalAlign=middle;whiteSpace=wrap;rounded=0;fillColor=#647687;fontColor=#ffffff;strokeColor=#314354;" parent="1" vertex="1">
          <mxGeometry x="210" y="258.5" width="35" height="21" as="geometry" />
        </mxCell>
        <mxCell id="JmvELf3OL0NUBLqZp8Vq-106" value="" style="endArrow=none;html=1;rounded=0;fillColor=#e51400;strokeColor=#B20000;exitX=0.54;exitY=1.009;exitDx=0;exitDy=0;exitPerimeter=0;entryX=0.5;entryY=0;entryDx=0;entryDy=0;" parent="1" source="JmvELf3OL0NUBLqZp8Vq-72" target="JmvELf3OL0NUBLqZp8Vq-101" edge="1">
          <mxGeometry relative="1" as="geometry">
            <mxPoint x="199.63" y="249" as="sourcePoint" />
            <mxPoint x="199.63" y="289" as="targetPoint" />
          </mxGeometry>
        </mxCell>
        <mxCell id="JmvELf3OL0NUBLqZp8Vq-107" value="M" style="text;html=1;align=center;verticalAlign=middle;whiteSpace=wrap;rounded=0;fillColor=#647687;fontColor=#ffffff;strokeColor=#314354;" parent="1" vertex="1">
          <mxGeometry x="210" y="350" width="35" height="21" as="geometry" />
        </mxCell>
        <mxCell id="JmvELf3OL0NUBLqZp8Vq-108" value="assigned" style="shape=rhombus;perimeter=rhombusPerimeter;whiteSpace=wrap;html=1;align=center;fillColor=#76608a;fontColor=#ffffff;strokeColor=#432D57;" parent="1" vertex="1">
          <mxGeometry x="425" y="390.5" width="120" height="60" as="geometry" />
        </mxCell>
        <mxCell id="YAS3KT2GduIRfFRIqAJC-1" value="&lt;span style=&quot;color: rgb(255, 255, 255);&quot;&gt;&lt;font style=&quot;font-size: 15px;&quot;&gt;does&lt;/font&gt;&lt;/span&gt;" style="shape=rhombus;perimeter=rhombusPerimeter;whiteSpace=wrap;html=1;align=center;fillColor=#76608a;fontColor=#ffffff;strokeColor=#432D57;" vertex="1" parent="1">
          <mxGeometry x="-130" y="30" width="120" height="60" as="geometry" />
        </mxCell>
        <mxCell id="YAS3KT2GduIRfFRIqAJC-2" value="" style="endArrow=none;html=1;rounded=0;exitX=1;exitY=0.5;exitDx=0;exitDy=0;entryX=0;entryY=0.5;entryDx=0;entryDy=0;fillColor=#e51400;strokeColor=#B20000;" edge="1" parent="1" source="YAS3KT2GduIRfFRIqAJC-1" target="JmvELf3OL0NUBLqZp8Vq-72">
          <mxGeometry width="50" height="50" relative="1" as="geometry">
            <mxPoint x="-40" y="140" as="sourcePoint" />
            <mxPoint x="130" y="190" as="targetPoint" />
            <Array as="points">
              <mxPoint x="20" y="160" />
            </Array>
          </mxGeometry>
        </mxCell>
        <mxCell id="YAS3KT2GduIRfFRIqAJC-3" value="" style="endArrow=none;html=1;rounded=0;entryX=0;entryY=0.5;entryDx=0;entryDy=0;exitX=0.333;exitY=0;exitDx=0;exitDy=0;exitPerimeter=0;fillColor=#e51400;strokeColor=#B20000;" edge="1" parent="1" source="JmvELf3OL0NUBLqZp8Vq-54" target="YAS3KT2GduIRfFRIqAJC-1">
          <mxGeometry width="50" height="50" relative="1" as="geometry">
            <mxPoint x="-190" y="120" as="sourcePoint" />
            <mxPoint x="-140" y="70" as="targetPoint" />
          </mxGeometry>
        </mxCell>
        <mxCell id="YAS3KT2GduIRfFRIqAJC-4" value="M" style="text;html=1;align=center;verticalAlign=middle;whiteSpace=wrap;rounded=0;fillColor=#647687;fontColor=#ffffff;strokeColor=#314354;" vertex="1" parent="1">
          <mxGeometry x="-227.5" y="100" width="35" height="21" as="geometry" />
        </mxCell>
        <mxCell id="YAS3KT2GduIRfFRIqAJC-5" value="1" style="text;html=1;align=center;verticalAlign=middle;whiteSpace=wrap;rounded=0;fillColor=#647687;fontColor=#ffffff;strokeColor=#314354;" vertex="1" parent="1">
          <mxGeometry x="-40" y="100" width="35" height="21" as="geometry" />
        </mxCell>
        <mxCell id="YAS3KT2GduIRfFRIqAJC-6" value="" style="endArrow=none;html=1;rounded=0;entryX=0;entryY=0.5;entryDx=0;entryDy=0;exitX=1;exitY=0.25;exitDx=0;exitDy=0;fillColor=#e51400;strokeColor=#B20000;" edge="1" parent="1" source="JmvELf3OL0NUBLqZp8Vq-3" target="JmvELf3OL0NUBLqZp8Vq-108">
          <mxGeometry width="50" height="50" relative="1" as="geometry">
            <mxPoint x="305" y="460" as="sourcePoint" />
            <mxPoint x="355" y="410" as="targetPoint" />
          </mxGeometry>
        </mxCell>
        <mxCell id="YAS3KT2GduIRfFRIqAJC-7" value="" style="endArrow=none;html=1;rounded=0;entryX=1;entryY=0.5;entryDx=0;entryDy=0;exitX=-0.021;exitY=0.583;exitDx=0;exitDy=0;exitPerimeter=0;fillColor=#e51400;strokeColor=#B20000;" edge="1" parent="1" source="JmvELf3OL0NUBLqZp8Vq-4" target="JmvELf3OL0NUBLqZp8Vq-108">
          <mxGeometry width="50" height="50" relative="1" as="geometry">
            <mxPoint x="660" y="460" as="sourcePoint" />
            <mxPoint x="590" y="440" as="targetPoint" />
          </mxGeometry>
        </mxCell>
        <mxCell id="YAS3KT2GduIRfFRIqAJC-8" value="M" style="text;html=1;align=center;verticalAlign=middle;whiteSpace=wrap;rounded=0;fillColor=#647687;fontColor=#ffffff;strokeColor=#314354;" vertex="1" parent="1">
          <mxGeometry x="287.5" y="419" width="35" height="21" as="geometry" />
        </mxCell>
        <mxCell id="YAS3KT2GduIRfFRIqAJC-9" value="M" style="text;html=1;align=center;verticalAlign=middle;whiteSpace=wrap;rounded=0;fillColor=#647687;fontColor=#ffffff;strokeColor=#314354;" vertex="1" parent="1">
          <mxGeometry x="605" y="419" width="35" height="21" as="geometry" />
        </mxCell>
        <mxCell id="YAS3KT2GduIRfFRIqAJC-10" value="number of passengers" style="ellipse;whiteSpace=wrap;html=1;fontStyle=0" vertex="1" parent="1">
          <mxGeometry x="364" y="320" width="100" height="60" as="geometry" />
        </mxCell>
        <mxCell id="YAS3KT2GduIRfFRIqAJC-11" value="price per passenger" style="ellipse;whiteSpace=wrap;html=1;fontStyle=0" vertex="1" parent="1">
          <mxGeometry x="434" y="258.5" width="100" height="60" as="geometry" />
        </mxCell>
        <mxCell id="YAS3KT2GduIRfFRIqAJC-12" value="date time" style="ellipse;whiteSpace=wrap;html=1;fontStyle=0" vertex="1" parent="1">
          <mxGeometry x="499" y="320" width="100" height="60" as="geometry" />
        </mxCell>
        <mxCell id="YAS3KT2GduIRfFRIqAJC-13" value="" style="endArrow=none;html=1;rounded=0;entryX=0.816;entryY=0.882;entryDx=0;entryDy=0;entryPerimeter=0;exitX=0.323;exitY=0.172;exitDx=0;exitDy=0;exitPerimeter=0;fillColor=#e3c800;strokeColor=#B09500;" edge="1" parent="1" source="JmvELf3OL0NUBLqZp8Vq-108" target="YAS3KT2GduIRfFRIqAJC-10">
          <mxGeometry width="50" height="50" relative="1" as="geometry">
            <mxPoint x="464" y="401" as="sourcePoint" />
            <mxPoint x="450" y="380" as="targetPoint" />
          </mxGeometry>
        </mxCell>
        <mxCell id="YAS3KT2GduIRfFRIqAJC-14" value="" style="endArrow=none;html=1;rounded=0;exitX=0.5;exitY=0;exitDx=0;exitDy=0;fillColor=#e3c800;strokeColor=#B09500;" edge="1" parent="1" source="JmvELf3OL0NUBLqZp8Vq-108">
          <mxGeometry width="50" height="50" relative="1" as="geometry">
            <mxPoint x="483.69" y="380" as="sourcePoint" />
            <mxPoint x="483.69" y="320" as="targetPoint" />
          </mxGeometry>
        </mxCell>
        <mxCell id="YAS3KT2GduIRfFRIqAJC-15" value="" style="endArrow=none;html=1;rounded=0;fillColor=#e3c800;strokeColor=#B09500;exitX=0.625;exitY=0.158;exitDx=0;exitDy=0;exitPerimeter=0;" edge="1" parent="1">
          <mxGeometry width="50" height="50" relative="1" as="geometry">
            <mxPoint x="500" y="398.9799999999998" as="sourcePoint" />
            <mxPoint x="523.6773746615372" y="374.86803573036786" as="targetPoint" />
          </mxGeometry>
        </mxCell>
        <mxCell id="YAS3KT2GduIRfFRIqAJC-16" value="assigned" style="shape=rhombus;perimeter=rhombusPerimeter;whiteSpace=wrap;html=1;align=center;fillColor=#76608a;fontColor=#ffffff;strokeColor=#432D57;" vertex="1" parent="1">
          <mxGeometry x="-85" y="399.5" width="120" height="60" as="geometry" />
        </mxCell>
        <mxCell id="YAS3KT2GduIRfFRIqAJC-17" value="" style="endArrow=none;html=1;rounded=0;fillColor=#e51400;strokeColor=#B20000;entryX=0;entryY=0.5;entryDx=0;entryDy=0;" edge="1" parent="1" target="YAS3KT2GduIRfFRIqAJC-16">
          <mxGeometry width="50" height="50" relative="1" as="geometry">
            <mxPoint x="-150" y="450" as="sourcePoint" />
            <mxPoint x="-90" y="430" as="targetPoint" />
          </mxGeometry>
        </mxCell>
        <mxCell id="YAS3KT2GduIRfFRIqAJC-18" value="" style="endArrow=none;html=1;rounded=0;exitX=1;exitY=0.5;exitDx=0;exitDy=0;fillColor=#e51400;strokeColor=#B20000;entryX=0;entryY=0.25;entryDx=0;entryDy=0;" edge="1" parent="1" source="YAS3KT2GduIRfFRIqAJC-16" target="JmvELf3OL0NUBLqZp8Vq-3">
          <mxGeometry width="50" height="50" relative="1" as="geometry">
            <mxPoint x="30" y="453.5" as="sourcePoint" />
            <mxPoint x="110" y="459.5" as="targetPoint" />
          </mxGeometry>
        </mxCell>
        <mxCell id="YAS3KT2GduIRfFRIqAJC-19" value="1" style="text;html=1;align=center;verticalAlign=middle;whiteSpace=wrap;rounded=0;fillColor=#647687;fontColor=#ffffff;strokeColor=#314354;" vertex="1" parent="1">
          <mxGeometry x="-130" y="454.5" width="35" height="21" as="geometry" />
        </mxCell>
        <mxCell id="YAS3KT2GduIRfFRIqAJC-20" value="1" style="text;html=1;align=center;verticalAlign=middle;whiteSpace=wrap;rounded=0;fillColor=#647687;fontColor=#ffffff;strokeColor=#314354;" vertex="1" parent="1">
          <mxGeometry x="62.5" y="454.5" width="35" height="21" as="geometry" />
        </mxCell>
      </root>
    </mxGraphModel>
  </diagram>
</mxfile>
